<?xml version="1.0" encoding="UTF-8"?>
<svg version="1.1" xmlns="http://www.w3.org/2000/svg" width="400" height="400">
<path d="M0 0 C1.23391228 -0.01058945 1.23391228 -0.01058945 2.49275208 -0.02139282 C36.44592663 -0.24667095 36.44592663 -0.24667095 51.171875 3.203125 C52.06503418 3.40180176 52.95819336 3.60047852 53.87841797 3.80517578 C80.05158526 9.7223948 105.43787555 20.28134731 127.171875 36.203125 C128.73228516 37.33814453 128.73228516 37.33814453 130.32421875 38.49609375 C137.93010108 44.13609215 144.93699192 50.32606186 151.77490234 56.86914062 C152.96618746 58.00671173 154.17117264 59.12990724 155.37890625 60.25 C187.35060068 90.72403868 210.20998236 140.36129218 211.33300781 184.46582031 C211.35254956 185.98756911 211.36630412 187.50940058 211.375 189.03125 C211.38205963 189.85385818 211.38911926 190.67646637 211.39639282 191.52400208 C211.62167095 225.47717663 211.62167095 225.47717663 208.171875 240.203125 C207.87385986 241.54286377 207.87385986 241.54286377 207.56982422 242.90966797 C201.6526052 269.08283526 191.09365269 294.46912555 175.171875 316.203125 C174.41519531 317.24339844 173.65851563 318.28367187 172.87890625 319.35546875 C167.23890785 326.96135108 161.04893814 333.96824192 154.50585938 340.80615234 C153.36828827 341.99743746 152.24509276 343.20242264 151.125 344.41015625 C120.65096132 376.38185068 71.01370782 399.24123236 26.90917969 400.36425781 C25.38743089 400.38379956 23.86559942 400.39755412 22.34375 400.40625 C21.10983772 400.41683945 21.10983772 400.41683945 19.85099792 400.42764282 C-14.10217663 400.65292095 -14.10217663 400.65292095 -28.828125 397.203125 C-30.16786377 396.90510986 -30.16786377 396.90510986 -31.53466797 396.60107422 C-57.70783526 390.6838552 -83.09412555 380.12490269 -104.828125 364.203125 C-105.86839844 363.44644531 -106.90867187 362.68976563 -107.98046875 361.91015625 C-115.58635108 356.27015785 -122.59324192 350.08018814 -129.43115234 343.53710938 C-130.62243746 342.39953827 -131.82742264 341.27634276 -133.03515625 340.15625 C-165.00685068 309.68221132 -187.86623236 260.04495782 -188.98925781 215.94042969 C-189.00879956 214.41868089 -189.02255412 212.89684942 -189.03125 211.375 C-189.03830963 210.55239182 -189.04536926 209.72978363 -189.05264282 208.88224792 C-189.27792095 174.92907337 -189.27792095 174.92907337 -185.828125 160.203125 C-185.62944824 159.30996582 -185.43077148 158.41680664 -185.22607422 157.49658203 C-179.3088552 131.32341474 -168.74990269 105.93712445 -152.828125 84.203125 C-152.07144531 83.16285156 -151.31476563 82.12257813 -150.53515625 81.05078125 C-144.89515785 73.44489892 -138.70518814 66.43800808 -132.16210938 59.60009766 C-131.02453827 58.40881254 -129.90134276 57.20382736 -128.78125 55.99609375 C-97.01652998 22.67028706 -45.85508406 0.26201706 0 0 Z " fill="#FED130" transform="translate(188.828125,-0.203125)"/>
<path d="M0 0 C-0.57467182 3.80335914 -1.64089886 6.45315846 -3.66796875 9.7109375 C-4.50279785 11.06626587 -4.50279785 11.06626587 -5.35449219 12.44897461 C-6.26183105 13.89735718 -6.26183105 13.89735718 -7.1875 15.375 C-8.4676882 17.44646611 -9.74762906 19.51808509 -11.02734375 21.58984375 C-11.68589355 22.65058105 -12.34444336 23.71131836 -13.02294922 24.80419922 C-16.7223805 30.78413938 -20.35437145 36.80525757 -23.99511719 42.82104492 C-26.65595685 47.20353739 -29.34219554 51.56065463 -32.13671875 55.859375 C-32.61270508 56.59679932 -33.08869141 57.33422363 -33.57910156 58.09399414 C-34.45682395 59.44670253 -35.34484276 60.79281012 -36.24511719 62.13061523 C-38.44174953 65.30421861 -38.44174953 65.30421861 -38.73657227 69.00097656 C-37.51732439 72.30995952 -35.20198405 74.85661596 -33 77.5625 C-32.50161621 78.18527832 -32.00323242 78.80805664 -31.48974609 79.44970703 C-30.0006303 81.30598903 -28.50217644 83.15427877 -27 85 C-26.24976563 85.92425781 -25.49953125 86.84851563 -24.7265625 87.80078125 C-23.30002883 89.54815242 -21.87022616 91.2928589 -20.4375 93.03515625 C-12.92260298 102.17587233 -5.44726029 111.34594234 1.81347656 120.69042969 C4.3357346 123.92489811 6.90805402 127.10702763 9.5390625 130.25390625 C10.13525391 130.97126953 10.73144531 131.68863281 11.34570312 132.42773438 C12.50587543 133.81968644 13.67352603 135.20544954 14.84960938 136.58398438 C19.85263241 142.60353351 19.85263241 142.60353351 20 147 C19 148 19 148 16.28125 148.1328125 C11.85296202 148.12366314 7.42760948 148.07493613 3 148 C1.46037598 147.98114746 1.46037598 147.98114746 -0.11035156 147.96191406 C-3.44941704 147.91355042 -6.78668291 147.83506195 -10.125 147.75 C-11.20330078 147.73598145 -12.28160156 147.72196289 -13.39257812 147.70751953 C-20.82826979 147.47326028 -24.71468465 146.16100612 -30.16796875 140.9140625 C-35.95853905 134.35066947 -41.39210076 127.55171038 -46.73828125 120.62597656 C-47.88713125 119.14545392 -49.05209568 117.67747128 -50.21875 116.2109375 C-50.8478125 115.41945313 -51.476875 114.62796875 -52.125 113.8125 C-52.66382813 113.13832031 -53.20265625 112.46414062 -53.7578125 111.76953125 C-56.25291758 108.21518345 -56.10764473 105.01095984 -56.0625 100.8125 C-56.05347656 99.72582031 -56.04445313 98.63914062 -56.03515625 97.51953125 C-56.01775391 96.27236328 -56.01775391 96.27236328 -56 95 C-56.44279297 95.75506836 -56.88558594 96.51013672 -57.34179688 97.28808594 C-59.02388969 100.15254472 -60.70917335 103.01507905 -62.39648438 105.87646484 C-63.11907772 107.10327487 -63.84047836 108.33078837 -64.56054688 109.55908203 C-65.60996292 111.34865883 -66.66339046 113.1357974 -67.71875 114.921875 C-68.06695801 115.51343384 -68.41516602 116.10499268 -68.77392578 116.71447754 C-70.54005613 119.68056151 -72.36353039 122.56962187 -74.3515625 125.39257812 C-75.09148437 126.44380859 -75.83140625 127.49503906 -76.59375 128.578125 C-77.60985352 129.9688623 -77.60985352 129.9688623 -78.64648438 131.38769531 C-80.23821985 133.92002508 -80.23821985 133.92002508 -79.85351562 136.76464844 C-79.20143366 139.2099896 -79.20143366 139.2099896 -76.75 140.1875 C-75.8425 140.455625 -74.935 140.72375 -74 141 C-72.33333333 141.66666667 -70.66666667 142.33333333 -69 143 C-69 143.33 -69 143.66 -69 144 C-76.48304552 144.3964692 -83.96498953 144.69717556 -91.4561882 144.88080692 C-94.93700216 144.96903711 -98.41056937 145.08822041 -101.88720703 145.2824707 C-124.23452796 146.49845522 -124.23452796 146.49845522 -130.38040161 142.42056274 C-134.27324017 138.51863995 -136.74657644 134.0105636 -139.03363037 129.03482056 C-140.2563342 126.46025405 -141.81828248 124.28540152 -143.55859375 122.03515625 C-144.03941406 121.37064453 -144.52023438 120.70613281 -145.015625 120.02148438 C-145.48484375 119.37501953 -145.9540625 118.72855469 -146.4375 118.0625 C-147.52997412 116.55340439 -148.62242124 115.04428922 -149.71484375 113.53515625 C-150.25737793 112.78637207 -150.79991211 112.03758789 -151.35888672 111.26611328 C-154.07648173 107.513552 -156.78794473 103.75656581 -159.5 100 C-160.58330362 98.49997854 -161.66663696 96.99997854 -162.75 95.5 C-164.91666667 92.5 -167.08333333 89.5 -169.25 86.5 C-169.78705566 85.75645264 -170.32411133 85.01290527 -170.87744141 84.24682617 C-171.95289859 82.75759468 -173.028097 81.26817627 -174.10302734 79.77856445 C-176.92969325 75.86217721 -179.76173821 71.94982762 -182.6015625 68.04296875 C-183.19130859 67.23021484 -183.78105469 66.41746094 -184.38867188 65.58007812 C-185.51591684 64.02678782 -186.6447327 62.47463586 -187.77539062 60.92382812 C-188.28521484 60.22064453 -188.79503906 59.51746094 -189.3203125 58.79296875 C-189.76648926 58.1796167 -190.21266602 57.56626465 -190.67236328 56.93432617 C-192.2190745 54.68081514 -193.60161886 52.34780643 -195 50 C-195.06970223 59.88407107 -195.12291362 69.76808305 -195.15543652 79.65235043 C-195.1710508 84.24268756 -195.19221112 88.83285577 -195.22631836 93.4230957 C-195.25906365 97.85811065 -195.27688484 102.29296372 -195.28463173 106.72809029 C-195.29014813 108.41486723 -195.30091998 110.10163594 -195.31719017 111.78834343 C-195.99059318 125.47910768 -195.99059318 125.47910768 -190.65397644 137.56333923 C-187.76044428 140.16388838 -184.6816195 141.80888781 -181 143 C-181 143.33 -181 143.66 -181 144 C-201.79 144 -222.58 144 -244 144 C-236.5 139 -236.5 139 -234 139 C-233.31653318 137.34015202 -232.65411685 135.67163195 -232 134 C-231.6524617 133.15525116 -231.3049234 132.31050232 -230.94685364 131.44015503 C-229.70439502 126.92599351 -229.71278705 122.74293428 -229.7253418 118.08251953 C-229.72023087 117.09962952 -229.71511993 116.1167395 -229.70985413 115.10406494 C-229.69598472 111.86358505 -229.69691301 108.6233185 -229.69921875 105.3828125 C-229.69533022 103.12368694 -229.69099523 100.86456212 -229.68623352 98.60543823 C-229.6787769 93.87283965 -229.67905847 89.14031568 -229.68432617 84.40771484 C-229.69011841 78.3528989 -229.6731928 72.29838908 -229.6499815 66.24362373 C-229.63522556 61.57838159 -229.63437504 56.91321285 -229.63749123 52.24795151 C-229.6369789 50.01610585 -229.63175785 47.78425598 -229.62167931 45.55243301 C-229.60929714 42.42684483 -229.61611772 39.30184874 -229.62768555 36.17626953 C-229.62004181 35.26068268 -229.61239807 34.34509583 -229.60452271 33.40176392 C-229.65181055 27.60012555 -230.54700232 23.28298725 -233 18 C-235.34079757 15.64352999 -235.34079757 15.64352999 -238 14 C-239.33767479 13.00581494 -240.67175992 12.00675522 -242 11 C-234.24655253 10.56632848 -226.49625383 10.27027084 -218.73339844 10.06616211 C-216.09809592 9.98104294 -213.46358775 9.86529358 -210.83105469 9.7175293 C-189.58443162 8.55547894 -189.58443162 8.55547894 -183.68405151 12.57943726 C-179.82970266 16.50135393 -177.32456412 21.02249621 -174.99053955 25.96517944 C-173.74409313 28.52569789 -172.17684608 30.71303072 -170.44140625 32.96484375 C-169.96058594 33.62935547 -169.47976562 34.29386719 -168.984375 34.97851562 C-168.51515625 35.62498047 -168.0459375 36.27144531 -167.5625 36.9375 C-166.47002588 38.44659561 -165.37757876 39.95571078 -164.28515625 41.46484375 C-163.74262207 42.21362793 -163.20008789 42.96241211 -162.64111328 43.73388672 C-159.92351831 47.48644794 -157.21202514 51.2434125 -154.5 55 C-151.21611457 59.54779486 -147.93154952 64.09509379 -144.64453125 68.640625 C-138.81920139 76.69783642 -132.99622763 84.75658245 -127.234375 92.859375 C-125.77146851 94.91562818 -124.30292297 96.96788393 -122.828125 99.015625 C-122.18359375 99.91796875 -121.5390625 100.8203125 -120.875 101.75 C-120.31554687 102.52859375 -119.75609375 103.3071875 -119.1796875 104.109375 C-118 106 -118 106 -118 108 C-115.69 108 -113.38 108 -111 108 C-111 75.99 -111 43.98 -111 11 C-97.8 11 -84.6 11 -71 11 C-73.16031119 12.62023339 -75.33251612 14.22708418 -77.5625 15.75 C-81.21035906 19.11725451 -82.75800002 22.64302014 -83.25863647 27.51901245 C-83.3462519 30.48485159 -83.33732336 33.43554668 -83.29296875 36.40234375 C-83.28872391 37.48004532 -83.28447906 38.55774689 -83.28010559 39.66810608 C-83.26338719 43.09149746 -83.22574683 46.5142882 -83.1875 49.9375 C-83.17244436 52.26626751 -83.1587575 54.59504429 -83.14648438 56.92382812 C-83.11350608 62.61608844 -83.06337483 68.30800129 -83 74 C-80.68586088 70.25100981 -78.3736545 66.50083066 -76.0625 62.75 C-75.70907532 62.17653839 -75.35565063 61.60307678 -74.99151611 61.01223755 C-70.75828842 54.1409993 -66.54228417 47.25984087 -62.36328125 40.35546875 C-61.7971386 39.42050064 -61.7971386 39.42050064 -61.21955872 38.46664429 C-59.39742702 35.45640933 -57.57791067 32.44463332 -55.76196289 29.43066406 C-42.24811286 7.07800798 -42.24811286 7.07800798 -30.84960938 4.20629883 C-27.73689295 3.54105324 -24.62420626 2.87620516 -21.50732422 2.23071289 C-19.50382532 1.81329698 -17.50400788 1.38062916 -15.50390625 0.94726562 C-14.23417969 0.68236328 -12.96445312 0.41746094 -11.65625 0.14453125 C-10.49931641 -0.09934326 -9.34238281 -0.34321777 -8.15039062 -0.59448242 C-5.08294439 -0.98932342 -2.96021311 -0.81183914 0 0 Z " fill="#010000" transform="translate(316,123)"/>
<path d="M0 0 C3.85200219 3.62621875 6.87914224 7.4685121 9.8125 11.875 C10.78302519 13.30915509 11.75443291 14.74271321 12.7265625 16.17578125 C13.51208496 17.337146 13.51208496 17.337146 14.31347656 18.52197266 C17.40225653 23.06035086 20.54794924 27.55916765 23.6875 32.0625 C25.0664639 34.04292861 26.44536945 36.02339785 27.82421875 38.00390625 C28.51563965 38.99664551 29.20706055 39.98938477 29.91943359 41.01220703 C33.28143898 45.84020773 36.64060919 50.67017987 40 55.5 C41.33331902 57.41667662 42.66665237 59.33334328 44 61.25 C68 95.75 68 95.75 70.00048828 98.62573242 C71.33215585 100.53998423 72.6638615 102.45420954 73.99560547 104.3684082 C77.35473975 109.19680432 80.71318503 114.02567707 84.0703125 118.85546875 C91.2489918 129.18160355 98.43861704 139.49977234 105.66064453 149.7956543 C106.4744458 150.95641479 106.4744458 150.95641479 107.3046875 152.140625 C107.77890137 152.81641602 108.25311523 153.49220703 108.74169922 154.18847656 C109.8467255 155.77933706 110.92555271 157.38832906 112 159 C112.33 138.21 112.66 117.42 113 96 C114.98 96 116.96 96 119 96 C120.7026057 99.40521141 120.12864821 103.29392119 120.11352539 107.03955078 C120.11367142 107.97618561 120.11381744 108.91282043 120.1139679 109.87783813 C120.11326944 112.98368622 120.10548015 116.08947485 120.09765625 119.1953125 C120.09579183 121.34479744 120.09436804 123.4942828 120.09336853 125.64376831 C120.08954522 131.30895149 120.07971651 136.97410915 120.06866455 142.63928223 C120.05844644 148.41707006 120.05387005 154.194862 120.04882812 159.97265625 C120.03809409 171.3151154 120.02101989 182.65755558 120 194 C114.22198486 194.18429565 114.22198486 194.18429565 112.22412109 192.52563477 C111.74539551 191.83783936 111.26666992 191.15004395 110.7734375 190.44140625 C110.22292725 189.67175537 109.67241699 188.90210449 109.10522461 188.10913086 C108.53425049 187.26874268 107.96327637 186.42835449 107.375 185.5625 C106.4614978 184.27001343 106.4614978 184.27001343 105.52954102 182.95141602 C103.66896939 180.31264198 101.83430909 177.65706908 100 175 C98.96221205 173.52682733 97.92200897 172.05535176 96.87890625 170.5859375 C94.90895246 167.81001976 92.94718149 165.02866032 90.9921875 162.2421875 C86.27543132 155.53550123 81.4517573 148.90557356 76.64111328 142.26611328 C73.38738999 137.77324515 70.14184881 133.27446259 66.89501953 128.77661133 C64.07785553 124.87470674 61.25789009 120.97487092 58.43359375 117.078125 C57.55574219 115.86576172 57.55574219 115.86576172 56.66015625 114.62890625 C55.54518372 113.08918228 54.42935437 111.55007825 53.3125 110.01171875 C52.80589844 109.31175781 52.29929687 108.61179687 51.77734375 107.890625 C51.33640381 107.28250977 50.89546387 106.67439453 50.44116211 106.04785156 C49 104 49 104 47.56005859 100.78735352 C44.58527561 97.54845428 43.99749967 97.56449523 39.79174805 97.36987305 C37.61464894 97.38975595 35.43769336 97.43898381 33.26171875 97.51171875 C30.89128067 97.5274077 28.5208376 97.54235859 26.15039062 97.55664062 C22.41719133 97.61483758 18.68498466 97.68756001 14.95239258 97.77661133 C11.3464883 97.8517095 7.74330145 97.87185437 4.13671875 97.88671875 C3.02608566 97.93011887 1.91545258 97.97351898 0.77116394 98.01823425 C-6.83402269 98.01841702 -6.83402269 98.01841702 -10.21885681 95.06195068 C-12.01023382 92.78268451 -13.5261466 90.49343898 -15 88 C-15.83334848 86.80350648 -16.67391899 85.61194492 -17.52734375 84.4296875 C-18.33340653 83.2466114 -19.13670187 82.06164595 -19.9375 80.875 C-20.87291614 79.50076961 -21.80916974 78.12710904 -22.74609375 76.75390625 C-23.2551123 76.0077002 -23.76413086 75.26149414 -24.28857422 74.49267578 C-28.35488234 68.5701357 -32.48440911 62.690847 -36.60522461 56.80615234 C-37.26143799 55.86594238 -37.91765137 54.92573242 -38.59375 53.95703125 C-39.17833984 53.12147705 -39.76292969 52.28592285 -40.36523438 51.42504883 C-42.00145288 48.99784476 -43.51714519 46.52327211 -45 44 C-39.04458768 36.28697315 -32.67329614 29.08729679 -26 22 C-25.34386719 21.28972656 -24.68773438 20.57945313 -24.01171875 19.84765625 C-16.83223306 12.32995068 -8.31451538 6.19472556 0 0 Z " fill="#FEFEFD" transform="translate(84,36)"/>
<path d="M0 0 C3.65760983 3.48374457 6.596004 7.02543724 9.5 11.1875 C10.37830071 12.43662391 11.2572389 13.68529977 12.13671875 14.93359375 C12.59997559 15.59343262 13.06323242 16.25327148 13.54052734 16.93310547 C16.10158993 20.56006363 18.70889458 24.15352394 21.3125 27.75 C22.42190097 29.28513748 23.53127572 30.82029391 24.640625 32.35546875 C26.85776582 35.42174103 29.07680188 38.48663157 31.296875 41.55078125 C37.06906814 49.52276676 42.80169882 57.51921526 48.45654297 65.57495117 C51.1419878 69.39338776 53.85560334 73.18856425 56.60546875 76.9609375 C57.20294922 77.78142578 57.80042969 78.60191406 58.41601562 79.44726562 C59.57410179 81.03436717 60.73542964 82.61910969 61.90039062 84.20117188 C62.42181641 84.91595703 62.94324219 85.63074219 63.48046875 86.3671875 C63.94348389 86.99737793 64.40649902 87.62756836 64.88354492 88.27685547 C66 90 66 90 67 93 C67.71552536 92.98445572 68.43105072 92.96891144 69.16825867 92.95289612 C75.92117216 92.8124651 82.67367664 92.70597807 89.42772198 92.6373148 C92.89995947 92.60082555 96.3709878 92.5513639 99.8425293 92.47192383 C103.83654165 92.38110304 107.82929022 92.34731184 111.82421875 92.31640625 C113.06709152 92.28027725 114.30996429 92.24414825 115.59049988 92.20692444 C124.04405566 92.20307413 124.04405566 92.20307413 126.92520142 94.60494995 C128.32348633 96.54272461 128.32348633 96.54272461 130 100 C128.51436696 103.82258388 126.56026326 105.2243111 123.125 107.375 C117.40335612 111.05908005 111.81393145 114.89423842 106.25 118.8125 C104.52886051 120.01983735 102.80750618 121.22686848 101.0859375 122.43359375 C98.57947209 124.19117039 96.073012 125.94875091 93.56738281 127.70751953 C91.33993812 129.26821764 89.1081797 130.82252351 86.875 132.375 C86.20629883 132.84526611 85.53759766 133.31553223 84.84863281 133.80004883 C80.2288438 137 80.2288438 137 78 137 C76.83349609 135.62084961 76.83349609 135.62084961 75.5234375 133.65234375 C75.02610107 132.9140332 74.52876465 132.17572266 74.01635742 131.41503906 C73.47470947 130.59745117 72.93306152 129.77986328 72.375 128.9375 C71.19238999 127.18032711 70.0087517 125.42384594 68.82421875 123.66796875 C68.19950684 122.73903809 67.57479492 121.81010742 66.93115234 120.85302734 C63.72804436 116.12085036 60.45742448 111.43614391 57.1875 106.75 C55.82678806 104.79689929 54.46611129 102.84377406 53.10546875 100.890625 C52.42661621 99.91673828 51.74776367 98.94285156 51.04833984 97.93945312 C47.69581651 93.12844228 44.34811999 88.31407577 41 83.5 C39.66669052 81.58331674 38.33335717 79.66665009 37 77.75 C29 66.25 29 66.25 26.99633789 63.36962891 C25.67534536 61.47077282 24.35422107 59.57200838 23.03295898 57.67333984 C19.89121233 53.15826879 16.75088735 48.64222831 13.61514282 44.12298584 C12.48919002 42.50038911 11.36276259 40.87812176 10.23632812 39.25585938 C8.81101633 37.20305182 7.38650851 35.14968577 5.96289062 33.09570312 C5.32673828 32.17982422 4.69058594 31.26394531 4.03515625 30.3203125 C3.19029663 29.10239014 3.19029663 29.10239014 2.32836914 27.85986328 C1.1323605 26.07754859 1.1323605 26.07754859 0 25 C-0.08737645 23.14630389 -0.10698153 21.28932459 -0.09765625 19.43359375 C-0.09443359 18.30888672 -0.09121094 17.18417969 -0.08789062 16.02539062 C-0.07951172 14.84138672 -0.07113281 13.65738281 -0.0625 12.4375 C-0.05798828 11.24962891 -0.05347656 10.06175781 -0.04882812 8.83789062 C-0.03699675 5.89187774 -0.02051287 2.94596319 0 0 Z " fill="#FDFDFC" transform="translate(121,174)"/>
<path d="M0 0 C1.98 0 3.96 0 6 0 C6.14671745 3.49954984 6.23453588 6.99829703 6.3125 10.5 C6.35439453 11.48226562 6.39628906 12.46453125 6.43945312 13.4765625 C6.55182014 20.21858361 5.52751281 24.83854175 1 30 C0.67 30 0.34 30 0 30 C0 20.1 0 10.2 0 0 Z " fill="#FDFDFD" transform="translate(233,167)"/>
<path d="M0 0 C3.3 0 6.6 0 10 0 C10 2.31 10 4.62 10 7 C8.33073546 6.02526874 6.66464358 5.04510211 5 4.0625 C4.071875 3.51722656 3.14375 2.97195312 2.1875 2.41015625 C1.465625 1.94480469 0.74375 1.47945312 0 1 C0 0.67 0 0.34 0 0 Z " fill="#070501" transform="translate(186,134)"/>
<path d="M0 0 C2.6486859 3.19668988 4.93992341 6.39486597 7 10 C3.06326356 8.68775452 0.77280706 7.08089673 -2 4 C-1.34 2.68 -0.68 1.36 0 0 Z " fill="#F4F3ED" transform="translate(237,255)"/>
</svg>
